<?xml version="1.0" encoding="UTF-8" standalone="no"?>
<!-- Created with Inkscape (http://www.inkscape.org/) -->

<svg
   xmlns:dc="http://purl.org/dc/elements/1.1/"
   xmlns:cc="http://creativecommons.org/ns#"
   xmlns:rdf="http://www.w3.org/1999/02/22-rdf-syntax-ns#"
   xmlns:svg="http://www.w3.org/2000/svg"
   xmlns="http://www.w3.org/2000/svg"
   xmlns:xlink="http://www.w3.org/1999/xlink"
   xmlns:sodipodi="http://sodipodi.sourceforge.net/DTD/sodipodi-0.dtd"
   xmlns:inkscape="http://www.inkscape.org/namespaces/inkscape"
   width="400mm"
   height="400mm"
   viewBox="0 0 400 400"
   version="1.1"
   id="svg8"
   inkscape:version="0.92.4 (5da689c313, 2019-01-14)"
   sodipodi:docname="tint.svg">
  <title
     id="title911">Tint</title>
  <defs
     id="defs2">
    <linearGradient
       inkscape:collect="always"
       id="linearGradient857">
      <stop
         style="stop-color:#005fa8;stop-opacity:1"
         offset="0"
         id="stop853" />
      <stop
         style="stop-color:#00ff93;stop-opacity:0.7085427"
         offset="1"
         id="stop855" />
    </linearGradient>
    <linearGradient
       inkscape:collect="always"
       xlink:href="#linearGradient857"
       id="linearGradient859"
       x1="422.85715"
       y1="1114.6682"
       x2="697.14282"
       y2="117.52532"
       gradientUnits="userSpaceOnUse" />
  </defs>
  <sodipodi:namedview
     id="base"
     pagecolor="#ffffff"
     bordercolor="#666666"
     borderopacity="1.0"
     inkscape:pageopacity="0.0"
     inkscape:pageshadow="2"
     inkscape:zoom="0.49497475"
     inkscape:cx="512.53043"
     inkscape:cy="735.41677"
     inkscape:document-units="mm"
     inkscape:current-layer="layer1"
     showgrid="false"
     inkscape:window-width="1920"
     inkscape:window-height="1017"
     inkscape:window-x="1912"
     inkscape:window-y="-8"
     inkscape:window-maximized="1" />
  <metadata
     id="metadata5">
    <rdf:RDF>
      <cc:Work
         rdf:about="">
        <dc:format>image/svg+xml</dc:format>
        <dc:type
           rdf:resource="http://purl.org/dc/dcmitype/StillImage" />
        <dc:title>Tint</dc:title>
      </cc:Work>
    </rdf:RDF>
  </metadata>
  <g
     inkscape:label="Logo"
     inkscape:groupmode="layer"
     id="layer1"
     transform="translate(0,103)">
    <path
       style="fill:url(#linearGradient859);fill-opacity:1;stroke:none;stroke-width:1.00709248px;stroke-linecap:butt;stroke-linejoin:miter;stroke-opacity:1"
       d="m 529.2031,154.59836 -59.62936,98.46663 c -16.53816,23.28769 -49.96969,93.05474 -50.01319,124.57759 -6.1e-4,69.98613 44.16334,126.72129 98.64257,126.7207 54.47868,-4e-4 98.64323,-56.73527 98.64258,-126.7207 -10e-4,-28.55696 -17.61316,-87.58983 -31.41403,-109.97684 z m 519.5561,149.90304 -74.63671,150.12722 c -15.39696,28.61929 -34.49008,91.19852 -34.49163,127.70536 -6.8e-4,89.46852 49.27144,161.99756 110.05074,161.99805 60.7799,7.6e-4 110.0515,-72.52863 110.0508,-161.99805 -0.049,-40.2984 -18.8705,-98.40953 -37.3214,-128.18024 z M 804.32422,647.47461 665.27148,926.45145 c -33.37209,45.36251 -71.9122,137.37905 -72,198.78295 -10e-4,136.3273 89.11632,246.8429 199.04883,246.8418 109.93153,-8e-4 199.04805,-110.5159 199.04688,-246.8418 -0.003,-55.6266 -32.30022,-143.19383 -60.14872,-186.80192 z m -130.24077,167.4866 c -10e-6,0 345.06735,379.59209 296.20476,456.21819 -59.88159,93.9058 -410.47427,-47.4542 -410.47427,-47.4542 0,0 266.46419,90.2563 321.41221,9.0254 45.57563,-67.3754 -207.1427,-417.78939 -207.1427,-417.78939 z"
       transform="matrix(0.26458333,0,0,0.26458333,0,-103)"
       id="path817"
       inkscape:connector-curvature="0"
       sodipodi:nodetypes="ccccccccccccccccccccccscsc" />
  </g>
</svg>
